<svg xmlns="http://www.w3.org/2000/svg" width="888" height="158" viewBox="0 0 888 158" font-family="-apple-system,BlinkMacSystemFont,'Segoe UI',Helvetica,Arial,sans-serif">
<style>
  text.lbl { fill:#7d8590; font-size:12px; font-weight:600; }
  text.total { fill:#39d353; font-size:12px; font-weight:600; }
  .c { transform-box:fill-box; transform-origin:center; opacity:0; animation:pop 0.55s ease-out both; }
  .g { animation:pop 0.55s ease-out both, flash 0.65s ease-out both; }
  @keyframes pop { 0%{opacity:0;transform:scale(.2)} 60%{opacity:1;transform:scale(1.1)} 100%{opacity:1;transform:scale(1)} }
  @keyframes flash { 0%{filter:brightness(2.2)} 45%{filter:brightness(2.2)} 100%{filter:brightness(1)} }
  @media (prefers-reduced-motion: reduce) { .c { opacity:1 !important; animation:none !important; } }
</style>
<rect width="888" height="158" fill="none"/>
  <text class="lbl" x="34" y="16">Jul</text>
  <text class="lbl" x="98" y="16">Aug</text>
  <text class="lbl" x="162" y="16">Sep</text>
  <text class="lbl" x="226" y="16">Oct</text>
  <text class="lbl" x="290" y="16">Nov</text>
  <text class="lbl" x="354" y="16">Dec</text>
  <text class="lbl" x="418" y="16">Jan</text>
  <text class="lbl" x="482" y="16">Feb</text>
  <text class="lbl" x="546" y="16">Mar</text>
  <text class="lbl" x="610" y="16">Apr</text>
  <text class="lbl" x="674" y="16">May</text>
  <text class="lbl" x="738" y="16">Jun</text>
  <text class="lbl" x="802" y="16">Jul</text>
  <text class="lbl" x="2" y="51">Mon</text>
  <text class="lbl" x="2" y="83">Wed</text>
  <text class="lbl" x="2" y="115">Fri</text>
  <rect class="c g" x="34" y="24" width="13" height="13" rx="2.5" fill="#0e4429" style="animation-delay:0.000s"/>
  <rect class="c g" x="34" y="40" width="13" height="13" rx="2.5" fill="#006d32" style="animation-delay:0.005s"/>
  <rect class="c" x="34" y="56" width="13" height="13" rx="2.5" fill="#161b22" style="animation-delay:0.010s"/>
  <rect class="c g" x="34" y="72" width="13" height="13" rx="2.5" fill="#006d32" style="animation-delay:0.015s"/>
  <rect class="c g" x="34" y="88" width="13" height="13" rx="2.5" fill="#0e4429" style="animation-delay:0.020s"/>
  <rect class="c" x="34" y="104" width="13" height="13" rx="2.5" fill="#161b22" style="animation-delay:0.025s"/>
  <rect class="c" x="34" y="120" width="13" height="13" rx="2.5" fill="#161b22" style="animation-delay:0.030s"/>
  <rect class="c g" x="50" y="24" width="13" height="13" rx="2.5" fill="#0e4429" style="animation-delay:0.035s"/>
  <rect class="c g" x="50" y="40" width="13" height="13" rx="2.5" fill="#0e4429" style="animation-delay:0.040s"/>
  <rect class="c g" x="50" y="56" width="13" height="13" rx="2.5" fill="#0e4429" style="animation-delay:0.045s"/>
  <rect class="c g" x="50" y="72" width="13" height="13" rx="2.5" fill="#0e4429" style="animation-delay:0.050s"/>
  <rect class="c g" x="50" y="88" width="13" height="13" rx="2.5" fill="#0e4429" style="animation-delay:0.055s"/>
  <rect class="c g" x="50" y="104" width="13" height="13" rx="2.5" fill="#006d32" style="animation-delay:0.060s"/>
  <rect class="c g" x="50" y="120" width="13" height="13" rx="2.5" fill="#006d32" style="animation-delay:0.065s"/>
  <rect class="c" x="66" y="24" width="13" height="13" rx="2.5" fill="#161b22" style="animation-delay:0.070s"/>
  <rect class="c" x="66" y="40" width="13" height="13" rx="2.5" fill="#161b22" style="animation-delay:0.075s"/>
  <rect class="c g" x="66" y="56" width="13" height="13" rx="2.5" fill="#006d32" style="animation-delay:0.080s"/>
  <rect class="c" x="66" y="72" width="13" height="13" rx="2.5" fill="#161b22" style="animation-delay:0.085s"/>
  <rect class="c" x="66" y="88" width="13" height="13" rx="2.5" fill="#161b22" style="animation-delay:0.090s"/>
  <rect class="c g" x="66" y="104" width="13" height="13" rx="2.5" fill="#006d32" style="animation-delay:0.095s"/>
  <rect class="c g" x="66" y="120" width="13" height="13" rx="2.5" fill="#006d32" style="animation-delay:0.100s"/>
  <rect class="c g" x="82" y="24" width="13" height="13" rx="2.5" fill="#0e4429" style="animation-delay:0.105s"/>
  <rect class="c" x="82" y="40" width="13" height="13" rx="2.5" fill="#161b22" style="animation-delay:0.110s"/>
  <rect class="c" x="82" y="56" width="13" height="13" rx="2.5" fill="#161b22" style="animation-delay:0.115s"/>
  <rect class="c g" x="82" y="72" width="13" height="13" rx="2.5" fill="#0e4429" style="animation-delay:0.120s"/>
  <rect class="c g" x="82" y="88" width="13" height="13" rx="2.5" fill="#0e4429" style="animation-delay:0.125s"/>
  <rect class="c" x="82" y="104" width="13" height="13" rx="2.5" fill="#161b22" style="animation-delay:0.130s"/>
  <rect class="c g" x="82" y="120" width="13" height="13" rx="2.5" fill="#006d32" style="animation-delay:0.135s"/>
  <rect class="c g" x="98" y="24" width="13" height="13" rx="2.5" fill="#39d353" style="animation-delay:0.140s"/>
  <rect class="c g" x="98" y="40" width="13" height="13" rx="2.5" fill="#26a641" style="animation-delay:0.145s"/>
  <rect class="c" x="98" y="56" width="13" height="13" rx="2.5" fill="#161b22" style="animation-delay:0.150s"/>
  <rect class="c g" x="98" y="72" width="13" height="13" rx="2.5" fill="#0e4429" style="animation-delay:0.155s"/>
  <rect class="c" x="98" y="88" width="13" height="13" rx="2.5" fill="#161b22" style="animation-delay:0.160s"/>
  <rect class="c g" x="98" y="104" width="13" height="13" rx="2.5" fill="#0e4429" style="animation-delay:0.165s"/>
  <rect class="c" x="98" y="120" width="13" height="13" rx="2.5" fill="#161b22" style="animation-delay:0.170s"/>
  <rect class="c g" x="114" y="24" width="13" height="13" rx="2.5" fill="#26a641" style="animation-delay:0.175s"/>
  <rect class="c g" x="114" y="40" width="13" height="13" rx="2.5" fill="#0e4429" style="animation-delay:0.180s"/>
  <rect class="c g" x="114" y="56" width="13" height="13" rx="2.5" fill="#0e4429" style="animation-delay:0.185s"/>
  <rect class="c" x="114" y="72" width="13" height="13" rx="2.5" fill="#161b22" style="animation-delay:0.190s"/>
  <rect class="c g" x="114" y="88" width="13" height="13" rx="2.5" fill="#0e4429" style="animation-delay:0.195s"/>
  <rect class="c g" x="114" y="104" width="13" height="13" rx="2.5" fill="#006d32" style="animation-delay:0.200s"/>
  <rect class="c g" x="114" y="120" width="13" height="13" rx="2.5" fill="#006d32" style="animation-delay:0.205s"/>
  <rect class="c" x="130" y="24" width="13" height="13" rx="2.5" fill="#161b22" style="animation-delay:0.210s"/>
  <rect class="c" x="130" y="40" width="13" height="13" rx="2.5" fill="#161b22" style="animation-delay:0.215s"/>
  <rect class="c" x="130" y="56" width="13" height="13" rx="2.5" fill="#161b22" style="animation-delay:0.220s"/>
  <rect class="c" x="130" y="72" width="13" height="13" rx="2.5" fill="#161b22" style="animation-delay:0.225s"/>
  <rect class="c" x="130" y="88" width="13" height="13" rx="2.5" fill="#161b22" style="animation-delay:0.230s"/>
  <rect class="c g" x="130" y="104" width="13" height="13" rx="2.5" fill="#26a641" style="animation-delay:0.235s"/>
  <rect class="c" x="130" y="120" width="13" height="13" rx="2.5" fill="#161b22" style="animation-delay:0.240s"/>
  <rect class="c g" x="146" y="24" width="13" height="13" rx="2.5" fill="#0e4429" style="animation-delay:0.245s"/>
  <rect class="c g" x="146" y="40" width="13" height="13" rx="2.5" fill="#0e4429" style="animation-delay:0.250s"/>
  <rect class="c" x="146" y="56" width="13" height="13" rx="2.5" fill="#161b22" style="animation-delay:0.255s"/>
  <rect class="c g" x="146" y="72" width="13" height="13" rx="2.5" fill="#006d32" style="animation-delay:0.260s"/>
  <rect class="c g" x="146" y="88" width="13" height="13" rx="2.5" fill="#006d32" style="animation-delay:0.265s"/>
  <rect class="c g" x="146" y="104" width="13" height="13" rx="2.5" fill="#26a641" style="animation-delay:0.270s"/>
  <rect class="c g" x="146" y="120" width="13" height="13" rx="2.5" fill="#0e4429" style="animation-delay:0.275s"/>
  <rect class="c g" x="162" y="24" width="13" height="13" rx="2.5" fill="#0e4429" style="animation-delay:0.280s"/>
  <rect class="c g" x="162" y="40" width="13" height="13" rx="2.5" fill="#006d32" style="animation-delay:0.285s"/>
  <rect class="c" x="162" y="56" width="13" height="13" rx="2.5" fill="#161b22" style="animation-delay:0.290s"/>
  <rect class="c" x="162" y="72" width="13" height="13" rx="2.5" fill="#161b22" style="animation-delay:0.295s"/>
  <rect class="c g" x="162" y="88" width="13" height="13" rx="2.5" fill="#006d32" style="animation-delay:0.300s"/>
  <rect class="c g" x="162" y="104" width="13" height="13" rx="2.5" fill="#0e4429" style="animation-delay:0.305s"/>
  <rect class="c g" x="162" y="120" width="13" height="13" rx="2.5" fill="#39d353" style="animation-delay:0.310s"/>
  <rect class="c g" x="178" y="24" width="13" height="13" rx="2.5" fill="#39d353" style="animation-delay:0.315s"/>
  <rect class="c g" x="178" y="40" width="13" height="13" rx="2.5" fill="#006d32" style="animation-delay:0.320s"/>
  <rect class="c g" x="178" y="56" width="13" height="13" rx="2.5" fill="#006d32" style="animation-delay:0.325s"/>
  <rect class="c g" x="178" y="72" width="13" height="13" rx="2.5" fill="#006d32" style="animation-delay:0.330s"/>
  <rect class="c" x="178" y="88" width="13" height="13" rx="2.5" fill="#161b22" style="animation-delay:0.335s"/>
  <rect class="c g" x="178" y="104" width="13" height="13" rx="2.5" fill="#0e4429" style="animation-delay:0.340s"/>
  <rect class="c" x="178" y="120" width="13" height="13" rx="2.5" fill="#161b22" style="animation-delay:0.345s"/>
  <rect class="c g" x="194" y="24" width="13" height="13" rx="2.5" fill="#006d32" style="animation-delay:0.350s"/>
  <rect class="c g" x="194" y="40" width="13" height="13" rx="2.5" fill="#39d353" style="animation-delay:0.355s"/>
  <rect class="c g" x="194" y="56" width="13" height="13" rx="2.5" fill="#0e4429" style="animation-delay:0.360s"/>
  <rect class="c g" x="194" y="72" width="13" height="13" rx="2.5" fill="#26a641" style="animation-delay:0.365s"/>
  <rect class="c g" x="194" y="88" width="13" height="13" rx="2.5" fill="#006d32" style="animation-delay:0.370s"/>
  <rect class="c" x="194" y="104" width="13" height="13" rx="2.5" fill="#161b22" style="animation-delay:0.375s"/>
  <rect class="c g" x="194" y="120" width="13" height="13" rx="2.5" fill="#006d32" style="animation-delay:0.380s"/>
  <rect class="c g" x="210" y="24" width="13" height="13" rx="2.5" fill="#0e4429" style="animation-delay:0.385s"/>
  <rect class="c" x="210" y="40" width="13" height="13" rx="2.5" fill="#161b22" style="animation-delay:0.390s"/>
  <rect class="c g" x="210" y="56" width="13" height="13" rx="2.5" fill="#26a641" style="animation-delay:0.395s"/>
  <rect class="c" x="210" y="72" width="13" height="13" rx="2.5" fill="#161b22" style="animation-delay:0.400s"/>
  <rect class="c" x="210" y="88" width="13" height="13" rx="2.5" fill="#161b22" style="animation-delay:0.405s"/>
  <rect class="c g" x="210" y="104" width="13" height="13" rx="2.5" fill="#0e4429" style="animation-delay:0.410s"/>
  <rect class="c" x="210" y="120" width="13" height="13" rx="2.5" fill="#161b22" style="animation-delay:0.415s"/>
  <rect class="c g" x="226" y="24" width="13" height="13" rx="2.5" fill="#0e4429" style="animation-delay:0.420s"/>
  <rect class="c g" x="226" y="40" width="13" height="13" rx="2.5" fill="#39d353" style="animation-delay:0.425s"/>
  <rect class="c" x="226" y="56" width="13" height="13" rx="2.5" fill="#161b22" style="animation-delay:0.430s"/>
  <rect class="c g" x="226" y="72" width="13" height="13" rx="2.5" fill="#0e4429" style="animation-delay:0.435s"/>
  <rect class="c" x="226" y="88" width="13" height="13" rx="2.5" fill="#161b22" style="animation-delay:0.440s"/>
  <rect class="c g" x="226" y="104" width="13" height="13" rx="2.5" fill="#0e4429" style="animation-delay:0.445s"/>
  <rect class="c g" x="226" y="120" width="13" height="13" rx="2.5" fill="#0e4429" style="animation-delay:0.450s"/>
  <rect class="c g" x="242" y="24" width="13" height="13" rx="2.5" fill="#26a641" style="animation-delay:0.455s"/>
  <rect class="c g" x="242" y="40" width="13" height="13" rx="2.5" fill="#006d32" style="animation-delay:0.460s"/>
  <rect class="c g" x="242" y="56" width="13" height="13" rx="2.5" fill="#39d353" style="animation-delay:0.465s"/>
  <rect class="c g" x="242" y="72" width="13" height="13" rx="2.5" fill="#0e4429" style="animation-delay:0.470s"/>
  <rect class="c g" x="242" y="88" width="13" height="13" rx="2.5" fill="#0e4429" style="animation-delay:0.475s"/>
  <rect class="c" x="242" y="104" width="13" height="13" rx="2.5" fill="#161b22" style="animation-delay:0.480s"/>
  <rect class="c" x="242" y="120" width="13" height="13" rx="2.5" fill="#161b22" style="animation-delay:0.485s"/>
  <rect class="c g" x="258" y="24" width="13" height="13" rx="2.5" fill="#0e4429" style="animation-delay:0.490s"/>
  <rect class="c g" x="258" y="40" width="13" height="13" rx="2.5" fill="#0e4429" style="animation-delay:0.495s"/>
  <rect class="c" x="258" y="56" width="13" height="13" rx="2.5" fill="#161b22" style="animation-delay:0.500s"/>
  <rect class="c g" x="258" y="72" width="13" height="13" rx="2.5" fill="#0e4429" style="animation-delay:0.505s"/>
  <rect class="c" x="258" y="88" width="13" height="13" rx="2.5" fill="#161b22" style="animation-delay:0.510s"/>
  <rect class="c" x="258" y="104" width="13" height="13" rx="2.5" fill="#161b22" style="animation-delay:0.515s"/>
  <rect class="c" x="258" y="120" width="13" height="13" rx="2.5" fill="#161b22" style="animation-delay:0.520s"/>
  <rect class="c g" x="274" y="24" width="13" height="13" rx="2.5" fill="#0e4429" style="animation-delay:0.525s"/>
  <rect class="c g" x="274" y="40" width="13" height="13" rx="2.5" fill="#006d32" style="animation-delay:0.530s"/>
  <rect class="c g" x="274" y="56" width="13" height="13" rx="2.5" fill="#0e4429" style="animation-delay:0.535s"/>
  <rect class="c g" x="274" y="72" width="13" height="13" rx="2.5" fill="#26a641" style="animation-delay:0.540s"/>
  <rect class="c g" x="274" y="88" width="13" height="13" rx="2.5" fill="#0e4429" style="animation-delay:0.545s"/>
  <rect class="c g" x="274" y="104" width="13" height="13" rx="2.5" fill="#006d32" style="animation-delay:0.550s"/>
  <rect class="c" x="274" y="120" width="13" height="13" rx="2.5" fill="#161b22" style="animation-delay:0.555s"/>
  <rect class="c" x="290" y="24" width="13" height="13" rx="2.5" fill="#161b22" style="animation-delay:0.560s"/>
  <rect class="c g" x="290" y="40" width="13" height="13" rx="2.5" fill="#0e4429" style="animation-delay:0.565s"/>
  <rect class="c g" x="290" y="56" width="13" height="13" rx="2.5" fill="#0e4429" style="animation-delay:0.570s"/>
  <rect class="c" x="290" y="72" width="13" height="13" rx="2.5" fill="#161b22" style="animation-delay:0.575s"/>
  <rect class="c g" x="290" y="88" width="13" height="13" rx="2.5" fill="#006d32" style="animation-delay:0.580s"/>
  <rect class="c" x="290" y="104" width="13" height="13" rx="2.5" fill="#161b22" style="animation-delay:0.585s"/>
  <rect class="c g" x="290" y="120" width="13" height="13" rx="2.5" fill="#006d32" style="animation-delay:0.590s"/>
  <rect class="c" x="306" y="24" width="13" height="13" rx="2.5" fill="#161b22" style="animation-delay:0.595s"/>
  <rect class="c" x="306" y="40" width="13" height="13" rx="2.5" fill="#161b22" style="animation-delay:0.600s"/>
  <rect class="c g" x="306" y="56" width="13" height="13" rx="2.5" fill="#0e4429" style="animation-delay:0.605s"/>
  <rect class="c" x="306" y="72" width="13" height="13" rx="2.5" fill="#161b22" style="animation-delay:0.610s"/>
  <rect class="c g" x="306" y="88" width="13" height="13" rx="2.5" fill="#0e4429" style="animation-delay:0.615s"/>
  <rect class="c g" x="306" y="104" width="13" height="13" rx="2.5" fill="#0e4429" style="animation-delay:0.620s"/>
  <rect class="c" x="306" y="120" width="13" height="13" rx="2.5" fill="#161b22" style="animation-delay:0.625s"/>
  <rect class="c g" x="322" y="24" width="13" height="13" rx="2.5" fill="#006d32" style="animation-delay:0.630s"/>
  <rect class="c g" x="322" y="40" width="13" height="13" rx="2.5" fill="#39d353" style="animation-delay:0.635s"/>
  <rect class="c" x="322" y="56" width="13" height="13" rx="2.5" fill="#161b22" style="animation-delay:0.640s"/>
  <rect class="c g" x="322" y="72" width="13" height="13" rx="2.5" fill="#0e4429" style="animation-delay:0.645s"/>
  <rect class="c g" x="322" y="88" width="13" height="13" rx="2.5" fill="#26a641" style="animation-delay:0.650s"/>
  <rect class="c" x="322" y="104" width="13" height="13" rx="2.5" fill="#161b22" style="animation-delay:0.655s"/>
  <rect class="c" x="322" y="120" width="13" height="13" rx="2.5" fill="#161b22" style="animation-delay:0.660s"/>
  <rect class="c g" x="338" y="24" width="13" height="13" rx="2.5" fill="#0e4429" style="animation-delay:0.665s"/>
  <rect class="c" x="338" y="40" width="13" height="13" rx="2.5" fill="#161b22" style="animation-delay:0.670s"/>
  <rect class="c g" x="338" y="56" width="13" height="13" rx="2.5" fill="#006d32" style="animation-delay:0.675s"/>
  <rect class="c" x="338" y="72" width="13" height="13" rx="2.5" fill="#161b22" style="animation-delay:0.680s"/>
  <rect class="c" x="338" y="88" width="13" height="13" rx="2.5" fill="#161b22" style="animation-delay:0.685s"/>
  <rect class="c g" x="338" y="104" width="13" height="13" rx="2.5" fill="#39d353" style="animation-delay:0.690s"/>
  <rect class="c g" x="338" y="120" width="13" height="13" rx="2.5" fill="#006d32" style="animation-delay:0.695s"/>
  <rect class="c" x="354" y="24" width="13" height="13" rx="2.5" fill="#161b22" style="animation-delay:0.700s"/>
  <rect class="c g" x="354" y="40" width="13" height="13" rx="2.5" fill="#0e4429" style="animation-delay:0.705s"/>
  <rect class="c" x="354" y="56" width="13" height="13" rx="2.5" fill="#161b22" style="animation-delay:0.710s"/>
  <rect class="c g" x="354" y="72" width="13" height="13" rx="2.5" fill="#39d353" style="animation-delay:0.715s"/>
  <rect class="c g" x="354" y="88" width="13" height="13" rx="2.5" fill="#26a641" style="animation-delay:0.720s"/>
  <rect class="c g" x="354" y="104" width="13" height="13" rx="2.5" fill="#0e4429" style="animation-delay:0.725s"/>
  <rect class="c g" x="354" y="120" width="13" height="13" rx="2.5" fill="#26a641" style="animation-delay:0.730s"/>
  <rect class="c" x="370" y="24" width="13" height="13" rx="2.5" fill="#161b22" style="animation-delay:0.735s"/>
  <rect class="c g" x="370" y="40" width="13" height="13" rx="2.5" fill="#26a641" style="animation-delay:0.740s"/>
  <rect class="c g" x="370" y="56" width="13" height="13" rx="2.5" fill="#0e4429" style="animation-delay:0.745s"/>
  <rect class="c g" x="370" y="72" width="13" height="13" rx="2.5" fill="#0e4429" style="animation-delay:0.750s"/>
  <rect class="c g" x="370" y="88" width="13" height="13" rx="2.5" fill="#006d32" style="animation-delay:0.755s"/>
  <rect class="c g" x="370" y="104" width="13" height="13" rx="2.5" fill="#26a641" style="animation-delay:0.760s"/>
  <rect class="c g" x="370" y="120" width="13" height="13" rx="2.5" fill="#006d32" style="animation-delay:0.765s"/>
  <rect class="c" x="386" y="24" width="13" height="13" rx="2.5" fill="#161b22" style="animation-delay:0.770s"/>
  <rect class="c g" x="386" y="40" width="13" height="13" rx="2.5" fill="#0e4429" style="animation-delay:0.775s"/>
  <rect class="c g" x="386" y="56" width="13" height="13" rx="2.5" fill="#0e4429" style="animation-delay:0.780s"/>
  <rect class="c" x="386" y="72" width="13" height="13" rx="2.5" fill="#161b22" style="animation-delay:0.785s"/>
  <rect class="c g" x="386" y="88" width="13" height="13" rx="2.5" fill="#006d32" style="animation-delay:0.790s"/>
  <rect class="c" x="386" y="104" width="13" height="13" rx="2.5" fill="#161b22" style="animation-delay:0.795s"/>
  <rect class="c g" x="386" y="120" width="13" height="13" rx="2.5" fill="#0e4429" style="animation-delay:0.800s"/>
  <rect class="c g" x="402" y="24" width="13" height="13" rx="2.5" fill="#39d353" style="animation-delay:0.805s"/>
  <rect class="c g" x="402" y="40" width="13" height="13" rx="2.5" fill="#0e4429" style="animation-delay:0.810s"/>
  <rect class="c" x="402" y="56" width="13" height="13" rx="2.5" fill="#161b22" style="animation-delay:0.815s"/>
  <rect class="c g" x="402" y="72" width="13" height="13" rx="2.5" fill="#26a641" style="animation-delay:0.820s"/>
  <rect class="c g" x="402" y="88" width="13" height="13" rx="2.5" fill="#26a641" style="animation-delay:0.825s"/>
  <rect class="c" x="402" y="104" width="13" height="13" rx="2.5" fill="#161b22" style="animation-delay:0.830s"/>
  <rect class="c g" x="402" y="120" width="13" height="13" rx="2.5" fill="#0e4429" style="animation-delay:0.835s"/>
  <rect class="c g" x="418" y="24" width="13" height="13" rx="2.5" fill="#006d32" style="animation-delay:0.840s"/>
  <rect class="c g" x="418" y="40" width="13" height="13" rx="2.5" fill="#006d32" style="animation-delay:0.845s"/>
  <rect class="c g" x="418" y="56" width="13" height="13" rx="2.5" fill="#26a641" style="animation-delay:0.850s"/>
  <rect class="c g" x="418" y="72" width="13" height="13" rx="2.5" fill="#26a641" style="animation-delay:0.855s"/>
  <rect class="c" x="418" y="88" width="13" height="13" rx="2.5" fill="#161b22" style="animation-delay:0.860s"/>
  <rect class="c g" x="418" y="104" width="13" height="13" rx="2.5" fill="#26a641" style="animation-delay:0.865s"/>
  <rect class="c" x="418" y="120" width="13" height="13" rx="2.5" fill="#161b22" style="animation-delay:0.870s"/>
  <rect class="c" x="434" y="24" width="13" height="13" rx="2.5" fill="#161b22" style="animation-delay:0.875s"/>
  <rect class="c" x="434" y="40" width="13" height="13" rx="2.5" fill="#161b22" style="animation-delay:0.880s"/>
  <rect class="c" x="434" y="56" width="13" height="13" rx="2.5" fill="#161b22" style="animation-delay:0.885s"/>
  <rect class="c g" x="434" y="72" width="13" height="13" rx="2.5" fill="#006d32" style="animation-delay:0.890s"/>
  <rect class="c g" x="434" y="88" width="13" height="13" rx="2.5" fill="#0e4429" style="animation-delay:0.895s"/>
  <rect class="c g" x="434" y="104" width="13" height="13" rx="2.5" fill="#26a641" style="animation-delay:0.900s"/>
  <rect class="c" x="434" y="120" width="13" height="13" rx="2.5" fill="#161b22" style="animation-delay:0.905s"/>
  <rect class="c g" x="450" y="24" width="13" height="13" rx="2.5" fill="#0e4429" style="animation-delay:0.910s"/>
  <rect class="c" x="450" y="40" width="13" height="13" rx="2.5" fill="#161b22" style="animation-delay:0.915s"/>
  <rect class="c" x="450" y="56" width="13" height="13" rx="2.5" fill="#161b22" style="animation-delay:0.920s"/>
  <rect class="c" x="450" y="72" width="13" height="13" rx="2.5" fill="#161b22" style="animation-delay:0.925s"/>
  <rect class="c g" x="450" y="88" width="13" height="13" rx="2.5" fill="#39d353" style="animation-delay:0.930s"/>
  <rect class="c g" x="450" y="104" width="13" height="13" rx="2.5" fill="#006d32" style="animation-delay:0.935s"/>
  <rect class="c g" x="450" y="120" width="13" height="13" rx="2.5" fill="#0e4429" style="animation-delay:0.940s"/>
  <rect class="c" x="466" y="24" width="13" height="13" rx="2.5" fill="#161b22" style="animation-delay:0.945s"/>
  <rect class="c g" x="466" y="40" width="13" height="13" rx="2.5" fill="#26a641" style="animation-delay:0.950s"/>
  <rect class="c g" x="466" y="56" width="13" height="13" rx="2.5" fill="#0e4429" style="animation-delay:0.955s"/>
  <rect class="c g" x="466" y="72" width="13" height="13" rx="2.5" fill="#0e4429" style="animation-delay:0.960s"/>
  <rect class="c g" x="466" y="88" width="13" height="13" rx="2.5" fill="#0e4429" style="animation-delay:0.965s"/>
  <rect class="c" x="466" y="104" width="13" height="13" rx="2.5" fill="#161b22" style="animation-delay:0.970s"/>
  <rect class="c g" x="466" y="120" width="13" height="13" rx="2.5" fill="#26a641" style="animation-delay:0.975s"/>
  <rect class="c g" x="482" y="24" width="13" height="13" rx="2.5" fill="#26a641" style="animation-delay:0.980s"/>
  <rect class="c g" x="482" y="40" width="13" height="13" rx="2.5" fill="#006d32" style="animation-delay:0.985s"/>
  <rect class="c g" x="482" y="56" width="13" height="13" rx="2.5" fill="#0e4429" style="animation-delay:0.990s"/>
  <rect class="c g" x="482" y="72" width="13" height="13" rx="2.5" fill="#26a641" style="animation-delay:0.995s"/>
  <rect class="c g" x="482" y="88" width="13" height="13" rx="2.5" fill="#39d353" style="animation-delay:1.000s"/>
  <rect class="c g" x="482" y="104" width="13" height="13" rx="2.5" fill="#26a641" style="animation-delay:1.005s"/>
  <rect class="c g" x="482" y="120" width="13" height="13" rx="2.5" fill="#26a641" style="animation-delay:1.010s"/>
  <rect class="c g" x="498" y="24" width="13" height="13" rx="2.5" fill="#26a641" style="animation-delay:1.015s"/>
  <rect class="c" x="498" y="40" width="13" height="13" rx="2.5" fill="#161b22" style="animation-delay:1.020s"/>
  <rect class="c g" x="498" y="56" width="13" height="13" rx="2.5" fill="#26a641" style="animation-delay:1.025s"/>
  <rect class="c g" x="498" y="72" width="13" height="13" rx="2.5" fill="#006d32" style="animation-delay:1.030s"/>
  <rect class="c" x="498" y="88" width="13" height="13" rx="2.5" fill="#161b22" style="animation-delay:1.035s"/>
  <rect class="c g" x="498" y="104" width="13" height="13" rx="2.5" fill="#006d32" style="animation-delay:1.040s"/>
  <rect class="c g" x="498" y="120" width="13" height="13" rx="2.5" fill="#0e4429" style="animation-delay:1.045s"/>
  <rect class="c g" x="514" y="24" width="13" height="13" rx="2.5" fill="#26a641" style="animation-delay:1.050s"/>
  <rect class="c" x="514" y="40" width="13" height="13" rx="2.5" fill="#161b22" style="animation-delay:1.055s"/>
  <rect class="c g" x="514" y="56" width="13" height="13" rx="2.5" fill="#26a641" style="animation-delay:1.060s"/>
  <rect class="c" x="514" y="72" width="13" height="13" rx="2.5" fill="#161b22" style="animation-delay:1.065s"/>
  <rect class="c g" x="514" y="88" width="13" height="13" rx="2.5" fill="#006d32" style="animation-delay:1.070s"/>
  <rect class="c" x="514" y="104" width="13" height="13" rx="2.5" fill="#161b22" style="animation-delay:1.075s"/>
  <rect class="c g" x="514" y="120" width="13" height="13" rx="2.5" fill="#006d32" style="animation-delay:1.080s"/>
  <rect class="c" x="530" y="24" width="13" height="13" rx="2.5" fill="#161b22" style="animation-delay:1.085s"/>
  <rect class="c g" x="530" y="40" width="13" height="13" rx="2.5" fill="#26a641" style="animation-delay:1.090s"/>
  <rect class="c g" x="530" y="56" width="13" height="13" rx="2.5" fill="#0e4429" style="animation-delay:1.095s"/>
  <rect class="c g" x="530" y="72" width="13" height="13" rx="2.5" fill="#0e4429" style="animation-delay:1.100s"/>
  <rect class="c" x="530" y="88" width="13" height="13" rx="2.5" fill="#161b22" style="animation-delay:1.105s"/>
  <rect class="c" x="530" y="104" width="13" height="13" rx="2.5" fill="#161b22" style="animation-delay:1.110s"/>
  <rect class="c g" x="530" y="120" width="13" height="13" rx="2.5" fill="#26a641" style="animation-delay:1.115s"/>
  <rect class="c" x="546" y="24" width="13" height="13" rx="2.5" fill="#161b22" style="animation-delay:1.120s"/>
  <rect class="c g" x="546" y="40" width="13" height="13" rx="2.5" fill="#39d353" style="animation-delay:1.125s"/>
  <rect class="c" x="546" y="56" width="13" height="13" rx="2.5" fill="#161b22" style="animation-delay:1.130s"/>
  <rect class="c g" x="546" y="72" width="13" height="13" rx="2.5" fill="#0e4429" style="animation-delay:1.135s"/>
  <rect class="c g" x="546" y="88" width="13" height="13" rx="2.5" fill="#006d32" style="animation-delay:1.140s"/>
  <rect class="c g" x="546" y="104" width="13" height="13" rx="2.5" fill="#0e4429" style="animation-delay:1.145s"/>
  <rect class="c" x="546" y="120" width="13" height="13" rx="2.5" fill="#161b22" style="animation-delay:1.150s"/>
  <rect class="c g" x="562" y="24" width="13" height="13" rx="2.5" fill="#26a641" style="animation-delay:1.155s"/>
  <rect class="c" x="562" y="40" width="13" height="13" rx="2.5" fill="#161b22" style="animation-delay:1.160s"/>
  <rect class="c g" x="562" y="56" width="13" height="13" rx="2.5" fill="#006d32" style="animation-delay:1.165s"/>
  <rect class="c g" x="562" y="72" width="13" height="13" rx="2.5" fill="#0e4429" style="animation-delay:1.170s"/>
  <rect class="c g" x="562" y="88" width="13" height="13" rx="2.5" fill="#006d32" style="animation-delay:1.175s"/>
  <rect class="c g" x="562" y="104" width="13" height="13" rx="2.5" fill="#0e4429" style="animation-delay:1.180s"/>
  <rect class="c g" x="562" y="120" width="13" height="13" rx="2.5" fill="#26a641" style="animation-delay:1.185s"/>
  <rect class="c g" x="578" y="24" width="13" height="13" rx="2.5" fill="#0e4429" style="animation-delay:1.190s"/>
  <rect class="c g" x="578" y="40" width="13" height="13" rx="2.5" fill="#006d32" style="animation-delay:1.195s"/>
  <rect class="c g" x="578" y="56" width="13" height="13" rx="2.5" fill="#0e4429" style="animation-delay:1.200s"/>
  <rect class="c g" x="578" y="72" width="13" height="13" rx="2.5" fill="#0e4429" style="animation-delay:1.205s"/>
  <rect class="c g" x="578" y="88" width="13" height="13" rx="2.5" fill="#006d32" style="animation-delay:1.210s"/>
  <rect class="c" x="578" y="104" width="13" height="13" rx="2.5" fill="#161b22" style="animation-delay:1.215s"/>
  <rect class="c g" x="578" y="120" width="13" height="13" rx="2.5" fill="#006d32" style="animation-delay:1.220s"/>
  <rect class="c g" x="594" y="24" width="13" height="13" rx="2.5" fill="#006d32" style="animation-delay:1.225s"/>
  <rect class="c g" x="594" y="40" width="13" height="13" rx="2.5" fill="#0e4429" style="animation-delay:1.230s"/>
  <rect class="c g" x="594" y="56" width="13" height="13" rx="2.5" fill="#0e4429" style="animation-delay:1.235s"/>
  <rect class="c" x="594" y="72" width="13" height="13" rx="2.5" fill="#161b22" style="animation-delay:1.240s"/>
  <rect class="c" x="594" y="88" width="13" height="13" rx="2.5" fill="#161b22" style="animation-delay:1.245s"/>
  <rect class="c g" x="594" y="104" width="13" height="13" rx="2.5" fill="#006d32" style="animation-delay:1.250s"/>
  <rect class="c g" x="594" y="120" width="13" height="13" rx="2.5" fill="#0e4429" style="animation-delay:1.255s"/>
  <rect class="c g" x="610" y="24" width="13" height="13" rx="2.5" fill="#006d32" style="animation-delay:1.260s"/>
  <rect class="c g" x="610" y="40" width="13" height="13" rx="2.5" fill="#006d32" style="animation-delay:1.265s"/>
  <rect class="c g" x="610" y="56" width="13" height="13" rx="2.5" fill="#006d32" style="animation-delay:1.270s"/>
  <rect class="c g" x="610" y="72" width="13" height="13" rx="2.5" fill="#0e4429" style="animation-delay:1.275s"/>
  <rect class="c g" x="610" y="88" width="13" height="13" rx="2.5" fill="#0e4429" style="animation-delay:1.280s"/>
  <rect class="c g" x="610" y="104" width="13" height="13" rx="2.5" fill="#006d32" style="animation-delay:1.285s"/>
  <rect class="c g" x="610" y="120" width="13" height="13" rx="2.5" fill="#006d32" style="animation-delay:1.290s"/>
  <rect class="c g" x="626" y="24" width="13" height="13" rx="2.5" fill="#006d32" style="animation-delay:1.295s"/>
  <rect class="c" x="626" y="40" width="13" height="13" rx="2.5" fill="#161b22" style="animation-delay:1.300s"/>
  <rect class="c" x="626" y="56" width="13" height="13" rx="2.5" fill="#161b22" style="animation-delay:1.305s"/>
  <rect class="c g" x="626" y="72" width="13" height="13" rx="2.5" fill="#0e4429" style="animation-delay:1.310s"/>
  <rect class="c g" x="626" y="88" width="13" height="13" rx="2.5" fill="#0e4429" style="animation-delay:1.315s"/>
  <rect class="c g" x="626" y="104" width="13" height="13" rx="2.5" fill="#0e4429" style="animation-delay:1.320s"/>
  <rect class="c g" x="626" y="120" width="13" height="13" rx="2.5" fill="#006d32" style="animation-delay:1.325s"/>
  <rect class="c g" x="642" y="24" width="13" height="13" rx="2.5" fill="#0e4429" style="animation-delay:1.330s"/>
  <rect class="c g" x="642" y="40" width="13" height="13" rx="2.5" fill="#006d32" style="animation-delay:1.335s"/>
  <rect class="c g" x="642" y="56" width="13" height="13" rx="2.5" fill="#26a641" style="animation-delay:1.340s"/>
  <rect class="c g" x="642" y="72" width="13" height="13" rx="2.5" fill="#006d32" style="animation-delay:1.345s"/>
  <rect class="c" x="642" y="88" width="13" height="13" rx="2.5" fill="#161b22" style="animation-delay:1.350s"/>
  <rect class="c g" x="642" y="104" width="13" height="13" rx="2.5" fill="#39d353" style="animation-delay:1.355s"/>
  <rect class="c" x="642" y="120" width="13" height="13" rx="2.5" fill="#161b22" style="animation-delay:1.360s"/>
  <rect class="c" x="658" y="24" width="13" height="13" rx="2.5" fill="#161b22" style="animation-delay:1.365s"/>
  <rect class="c g" x="658" y="40" width="13" height="13" rx="2.5" fill="#006d32" style="animation-delay:1.370s"/>
  <rect class="c" x="658" y="56" width="13" height="13" rx="2.5" fill="#161b22" style="animation-delay:1.375s"/>
  <rect class="c g" x="658" y="72" width="13" height="13" rx="2.5" fill="#0e4429" style="animation-delay:1.380s"/>
  <rect class="c g" x="658" y="88" width="13" height="13" rx="2.5" fill="#39d353" style="animation-delay:1.385s"/>
  <rect class="c g" x="658" y="104" width="13" height="13" rx="2.5" fill="#39d353" style="animation-delay:1.390s"/>
  <rect class="c g" x="658" y="120" width="13" height="13" rx="2.5" fill="#0e4429" style="animation-delay:1.395s"/>
  <rect class="c g" x="674" y="24" width="13" height="13" rx="2.5" fill="#26a641" style="animation-delay:1.400s"/>
  <rect class="c g" x="674" y="40" width="13" height="13" rx="2.5" fill="#006d32" style="animation-delay:1.405s"/>
  <rect class="c g" x="674" y="56" width="13" height="13" rx="2.5" fill="#26a641" style="animation-delay:1.410s"/>
  <rect class="c g" x="674" y="72" width="13" height="13" rx="2.5" fill="#0e4429" style="animation-delay:1.415s"/>
  <rect class="c g" x="674" y="88" width="13" height="13" rx="2.5" fill="#006d32" style="animation-delay:1.420s"/>
  <rect class="c g" x="674" y="104" width="13" height="13" rx="2.5" fill="#006d32" style="animation-delay:1.425s"/>
  <rect class="c g" x="674" y="120" width="13" height="13" rx="2.5" fill="#0e4429" style="animation-delay:1.430s"/>
  <rect class="c g" x="690" y="24" width="13" height="13" rx="2.5" fill="#0e4429" style="animation-delay:1.435s"/>
  <rect class="c" x="690" y="40" width="13" height="13" rx="2.5" fill="#161b22" style="animation-delay:1.440s"/>
  <rect class="c" x="690" y="56" width="13" height="13" rx="2.5" fill="#161b22" style="animation-delay:1.445s"/>
  <rect class="c" x="690" y="72" width="13" height="13" rx="2.5" fill="#161b22" style="animation-delay:1.450s"/>
  <rect class="c g" x="690" y="88" width="13" height="13" rx="2.5" fill="#0e4429" style="animation-delay:1.455s"/>
  <rect class="c" x="690" y="104" width="13" height="13" rx="2.5" fill="#161b22" style="animation-delay:1.460s"/>
  <rect class="c g" x="690" y="120" width="13" height="13" rx="2.5" fill="#0e4429" style="animation-delay:1.465s"/>
  <rect class="c g" x="706" y="24" width="13" height="13" rx="2.5" fill="#006d32" style="animation-delay:1.470s"/>
  <rect class="c g" x="706" y="40" width="13" height="13" rx="2.5" fill="#0e4429" style="animation-delay:1.475s"/>
  <rect class="c g" x="706" y="56" width="13" height="13" rx="2.5" fill="#0e4429" style="animation-delay:1.480s"/>
  <rect class="c" x="706" y="72" width="13" height="13" rx="2.5" fill="#161b22" style="animation-delay:1.485s"/>
  <rect class="c g" x="706" y="88" width="13" height="13" rx="2.5" fill="#006d32" style="animation-delay:1.490s"/>
  <rect class="c g" x="706" y="104" width="13" height="13" rx="2.5" fill="#26a641" style="animation-delay:1.495s"/>
  <rect class="c g" x="706" y="120" width="13" height="13" rx="2.5" fill="#26a641" style="animation-delay:1.500s"/>
  <rect class="c g" x="722" y="24" width="13" height="13" rx="2.5" fill="#26a641" style="animation-delay:1.505s"/>
  <rect class="c g" x="722" y="40" width="13" height="13" rx="2.5" fill="#0e4429" style="animation-delay:1.510s"/>
  <rect class="c g" x="722" y="56" width="13" height="13" rx="2.5" fill="#26a641" style="animation-delay:1.515s"/>
  <rect class="c g" x="722" y="72" width="13" height="13" rx="2.5" fill="#006d32" style="animation-delay:1.520s"/>
  <rect class="c g" x="722" y="88" width="13" height="13" rx="2.5" fill="#0e4429" style="animation-delay:1.525s"/>
  <rect class="c g" x="722" y="104" width="13" height="13" rx="2.5" fill="#0e4429" style="animation-delay:1.530s"/>
  <rect class="c g" x="722" y="120" width="13" height="13" rx="2.5" fill="#26a641" style="animation-delay:1.535s"/>
  <rect class="c" x="738" y="24" width="13" height="13" rx="2.5" fill="#161b22" style="animation-delay:1.540s"/>
  <rect class="c g" x="738" y="40" width="13" height="13" rx="2.5" fill="#0e4429" style="animation-delay:1.545s"/>
  <rect class="c g" x="738" y="56" width="13" height="13" rx="2.5" fill="#0e4429" style="animation-delay:1.550s"/>
  <rect class="c g" x="738" y="72" width="13" height="13" rx="2.5" fill="#006d32" style="animation-delay:1.555s"/>
  <rect class="c g" x="738" y="88" width="13" height="13" rx="2.5" fill="#006d32" style="animation-delay:1.560s"/>
  <rect class="c g" x="738" y="104" width="13" height="13" rx="2.5" fill="#26a641" style="animation-delay:1.565s"/>
  <rect class="c g" x="738" y="120" width="13" height="13" rx="2.5" fill="#0e4429" style="animation-delay:1.570s"/>
  <rect class="c g" x="754" y="24" width="13" height="13" rx="2.5" fill="#0e4429" style="animation-delay:1.575s"/>
  <rect class="c" x="754" y="40" width="13" height="13" rx="2.5" fill="#161b22" style="animation-delay:1.580s"/>
  <rect class="c g" x="754" y="56" width="13" height="13" rx="2.5" fill="#0e4429" style="animation-delay:1.585s"/>
  <rect class="c g" x="754" y="72" width="13" height="13" rx="2.5" fill="#26a641" style="animation-delay:1.590s"/>
  <rect class="c" x="754" y="88" width="13" height="13" rx="2.5" fill="#161b22" style="animation-delay:1.595s"/>
  <rect class="c g" x="754" y="104" width="13" height="13" rx="2.5" fill="#0e4429" style="animation-delay:1.600s"/>
  <rect class="c g" x="754" y="120" width="13" height="13" rx="2.5" fill="#0e4429" style="animation-delay:1.605s"/>
  <rect class="c g" x="770" y="24" width="13" height="13" rx="2.5" fill="#006d32" style="animation-delay:1.610s"/>
  <rect class="c" x="770" y="40" width="13" height="13" rx="2.5" fill="#161b22" style="animation-delay:1.615s"/>
  <rect class="c g" x="770" y="56" width="13" height="13" rx="2.5" fill="#39d353" style="animation-delay:1.620s"/>
  <rect class="c" x="770" y="72" width="13" height="13" rx="2.5" fill="#161b22" style="animation-delay:1.625s"/>
  <rect class="c" x="770" y="88" width="13" height="13" rx="2.5" fill="#161b22" style="animation-delay:1.630s"/>
  <rect class="c" x="770" y="104" width="13" height="13" rx="2.5" fill="#161b22" style="animation-delay:1.635s"/>
  <rect class="c g" x="770" y="120" width="13" height="13" rx="2.5" fill="#0e4429" style="animation-delay:1.640s"/>
  <rect class="c" x="786" y="24" width="13" height="13" rx="2.5" fill="#161b22" style="animation-delay:1.645s"/>
  <rect class="c" x="786" y="40" width="13" height="13" rx="2.5" fill="#161b22" style="animation-delay:1.650s"/>
  <rect class="c g" x="786" y="56" width="13" height="13" rx="2.5" fill="#39d353" style="animation-delay:1.655s"/>
  <rect class="c g" x="786" y="72" width="13" height="13" rx="2.5" fill="#006d32" style="animation-delay:1.660s"/>
  <rect class="c" x="786" y="88" width="13" height="13" rx="2.5" fill="#161b22" style="animation-delay:1.665s"/>
  <rect class="c" x="786" y="104" width="13" height="13" rx="2.5" fill="#161b22" style="animation-delay:1.670s"/>
  <rect class="c" x="786" y="120" width="13" height="13" rx="2.5" fill="#161b22" style="animation-delay:1.675s"/>
  <rect class="c" x="802" y="24" width="13" height="13" rx="2.5" fill="#161b22" style="animation-delay:1.680s"/>
  <rect class="c g" x="802" y="40" width="13" height="13" rx="2.5" fill="#006d32" style="animation-delay:1.685s"/>
  <rect class="c g" x="802" y="56" width="13" height="13" rx="2.5" fill="#0e4429" style="animation-delay:1.690s"/>
  <rect class="c g" x="802" y="72" width="13" height="13" rx="2.5" fill="#006d32" style="animation-delay:1.695s"/>
  <rect class="c g" x="802" y="88" width="13" height="13" rx="2.5" fill="#0e4429" style="animation-delay:1.700s"/>
  <rect class="c g" x="802" y="104" width="13" height="13" rx="2.5" fill="#006d32" style="animation-delay:1.705s"/>
  <rect class="c g" x="802" y="120" width="13" height="13" rx="2.5" fill="#39d353" style="animation-delay:1.710s"/>
  <rect class="c g" x="818" y="24" width="13" height="13" rx="2.5" fill="#0e4429" style="animation-delay:1.715s"/>
  <rect class="c g" x="818" y="40" width="13" height="13" rx="2.5" fill="#0e4429" style="animation-delay:1.720s"/>
  <rect class="c g" x="818" y="56" width="13" height="13" rx="2.5" fill="#0e4429" style="animation-delay:1.725s"/>
  <rect class="c" x="818" y="72" width="13" height="13" rx="2.5" fill="#161b22" style="animation-delay:1.730s"/>
  <rect class="c g" x="818" y="88" width="13" height="13" rx="2.5" fill="#0e4429" style="animation-delay:1.735s"/>
  <rect class="c" x="818" y="104" width="13" height="13" rx="2.5" fill="#161b22" style="animation-delay:1.740s"/>
  <rect class="c g" x="818" y="120" width="13" height="13" rx="2.5" fill="#006d32" style="animation-delay:1.745s"/>
  <rect class="c g" x="834" y="24" width="13" height="13" rx="2.5" fill="#26a641" style="animation-delay:1.750s"/>
  <rect class="c g" x="834" y="40" width="13" height="13" rx="2.5" fill="#006d32" style="animation-delay:1.755s"/>
  <rect class="c" x="834" y="56" width="13" height="13" rx="2.5" fill="#161b22" style="animation-delay:1.760s"/>
  <rect class="c g" x="834" y="72" width="13" height="13" rx="2.5" fill="#0e4429" style="animation-delay:1.765s"/>
  <rect class="c" x="834" y="88" width="13" height="13" rx="2.5" fill="#161b22" style="animation-delay:1.770s"/>
  <rect class="c g" x="834" y="104" width="13" height="13" rx="2.5" fill="#0e4429" style="animation-delay:1.775s"/>
  <rect class="c g" x="834" y="120" width="13" height="13" rx="2.5" fill="#006d32" style="animation-delay:1.780s"/>
  <rect class="c" x="850" y="24" width="13" height="13" rx="2.5" fill="#161b22" style="animation-delay:1.785s"/>
  <rect class="c g" x="850" y="40" width="13" height="13" rx="2.5" fill="#39d353" style="animation-delay:1.790s"/>
  <rect class="c g" x="850" y="56" width="13" height="13" rx="2.5" fill="#006d32" style="animation-delay:1.795s"/>
  <rect class="c" x="850" y="72" width="13" height="13" rx="2.5" fill="#161b22" style="animation-delay:1.800s"/>
  <rect class="c g" x="850" y="88" width="13" height="13" rx="2.5" fill="#0e4429" style="animation-delay:1.805s"/>
  <rect class="c" x="850" y="104" width="13" height="13" rx="2.5" fill="#161b22" style="animation-delay:1.810s"/>
  <rect class="c g" x="850" y="120" width="13" height="13" rx="2.5" fill="#006d32" style="animation-delay:1.815s"/>
  <rect class="c g" x="866" y="24" width="13" height="13" rx="2.5" fill="#0e4429" style="animation-delay:1.820s"/>
  <rect class="c g" x="866" y="40" width="13" height="13" rx="2.5" fill="#0e4429" style="animation-delay:1.825s"/>
  <rect class="c g" x="866" y="56" width="13" height="13" rx="2.5" fill="#26a641" style="animation-delay:1.830s"/>
  <rect class="c" x="866" y="72" width="13" height="13" rx="2.5" fill="#161b22" style="animation-delay:1.835s"/>
  <rect class="c g" x="866" y="88" width="13" height="13" rx="2.5" fill="#0e4429" style="animation-delay:1.840s"/>
  <rect class="c g" x="866" y="104" width="13" height="13" rx="2.5" fill="#0e4429" style="animation-delay:1.845s"/>
  <rect class="c g" x="866" y="120" width="13" height="13" rx="2.5" fill="#0e4429" style="animation-delay:1.850s"/>
  <text class="total" x="34" y="150">1,407 contributions in the last year</text>
  <g transform="translate(730, 140)">
    <text class="lbl" x="-32" y="10">Less</text>
    <rect x="0" y="0" width="11" height="11" rx="2" fill="#161b22"/>
    <rect x="15" y="0" width="11" height="11" rx="2" fill="#0e4429"/>
    <rect x="30" y="0" width="11" height="11" rx="2" fill="#006d32"/>
    <rect x="45" y="0" width="11" height="11" rx="2" fill="#26a641"/>
    <rect x="60" y="0" width="11" height="11" rx="2" fill="#39d353"/>
    <text class="lbl" x="80" y="10">More</text>
  </g>
</svg>